<svg xmlns="http://www.w3.org/2000/svg" viewBox="0 0 500 500" height="500" width="500"><defs><style>.a{isolation:isolate;}.b{fill:#d1c8bf;}.c{fill:#fff;}.d{fill:#dc1431;mix-blend-mode:multiply;}</style></defs><title>SVG Icon Masters-v3</title><g class="a"><path class="b" d="M304.828,144.385a10.419,10.419,0,0,1-10.418,10.42H104.317A10.419,10.419,0,0,1,93.9,144.385V32.413A10.418,10.418,0,0,1,104.317,22H294.411a10.417,10.417,0,0,1,10.418,10.413V144.385Z"/><rect class="c" x="111.642" y="116.983" width="33.497" height="11.449"/><rect class="c" x="158.955" y="116.983" width="33.501" height="11.449"/><rect class="c" x="206.273" y="116.983" width="33.501" height="11.449"/><rect class="c" x="253.585" y="116.983" width="33.497" height="11.449"/><path class="c" d="M144.873,103.153a5.141,5.141,0,0,1-5.143,5.14H116.51a5.141,5.141,0,0,1-5.143-5.14V88.111a5.139,5.139,0,0,1,5.143-5.134h23.221a5.139,5.139,0,0,1,5.143,5.134v15.042Z"/><path class="b" d="M422.405,259.406a10.426,10.426,0,0,1-10.426,10.418H221.89a10.418,10.418,0,0,1-10.418-10.418V147.432a10.417,10.417,0,0,1,10.418-10.413H411.979a10.424,10.424,0,0,1,10.426,10.413V259.406Z"/><rect class="c" x="229.214" y="232.004" width="33.501" height="11.444"/><rect class="c" x="276.523" y="232.004" width="33.51" height="11.444"/><rect class="c" x="323.84" y="232.004" width="33.51" height="11.444"/><rect class="c" x="371.158" y="232.004" width="33.501" height="11.444"/><path class="c" d="M262.445,218.17a5.136,5.136,0,0,1-5.143,5.143H234.082a5.138,5.138,0,0,1-5.143-5.143V203.132A5.137,5.137,0,0,1,234.082,198H257.3a5.134,5.134,0,0,1,5.143,5.134V218.17Z"/><path class="d" d="M365.856,131.04L338.7,103.9,285.941,51.162V93.253h-109.7v28.308h-0.009v47.308H255.32v0.009h30.62v42.069Z"/></g></svg>